<?xml version="1.0" encoding="UTF-8" standalone="no"?>
<svg
   width="100%"
   height="50%"
   className="mx-auto max-w-7xl"
   viewBox="0 0 1240 272"
   fill="none"
   version="1.1"
   id="svg76"
   sodipodi:docname="drop.svg"
   inkscape:version="1.2.1 (9c6d41e, 2022-07-14)"
   xmlns:inkscape="http://www.inkscape.org/namespaces/inkscape"
   xmlns:sodipodi="http://sodipodi.sourceforge.net/DTD/sodipodi-0.dtd"
   xmlns="http://www.w3.org/2000/svg"
   xmlns:svg="http://www.w3.org/2000/svg">
  <defs
     id="defs80" />
  <sodipodi:namedview
     id="namedview78"
     pagecolor="#ffffff"
     bordercolor="#000000"
     borderopacity="0.25"
     inkscape:showpageshadow="2"
     inkscape:pageopacity="0.0"
     inkscape:pagecheckerboard="0"
     inkscape:deskcolor="#d1d1d1"
     showgrid="false"
     inkscape:zoom="1.3412499"
     inkscape:cx="624.04479"
     inkscape:cy="144.26842"
     inkscape:window-width="1440"
     inkscape:window-height="789"
     inkscape:window-x="0"
     inkscape:window-y="25"
     inkscape:window-maximized="1"
     inkscape:current-layer="svg76" />
  <path
     d="m -10.438025,6.7712941 7.9222198,0.874524 c 8.00838,0.940527 23.9388802,2.5905729 39.4388802,9.6857699 16.1889,7.095198 31.8611,19.305538 48.2222,26.400735 15.672695,7.095198 31.860695,8.745244 47.360695,1.765549 16.017,-7.045696 31.862,-22.886137 48.223,-27.29176 15.5,-4.33962 31,2.590573 47.361,4.405623 15.844,1.815051 31.861,-1.81505 47.361,-5.280147 16.189,-3.465096 31.861,-7.095197 48.222,-8.7947449 15.672,-1.765549 31.861,-1.765549 47.361,4.3891219 15.931,6.220674 31.861,18.431014 47.361,18.480515 16.275,-0.0495 31.861,-12.259841 48.223,-11.434818 15.758,0.825023 31.861,15.015418 47.361,21.120588 16.102,6.10517 31.861,4.455124 48.222,-0.874525 15.586,-5.230645 31.861,-14.140893 47.361,-21.120588 15.931,-7.045696 31.861,-12.3258429 47.361,-13.2003669 16.189,-0.940527 31.861,2.689575 48.222,10.5602939 15.673,7.969722 31.861,20.180062 47.361,22.869637 16.017,2.590572 31.862,-4.339621 48.223,-11.434819 15.5,-7.095197 31,-14.02539 47.361,-12.325843 15.844,1.765549 31.861,12.325843 47.361,13.200368 16.189,0.940526 31.861,-7.969722 48.222,-8.794745 15.672,-0.825023 31.861,6.10517 47.359,7.92022 15.93003,1.815051 31.86003,-1.81505 47.36003,-6.154671 16.28,-4.405623 31.86,-9.68577 48.23,-7.045696 15.75,2.640073 31.86,13.200367 47.36,20.246063 16.1,6.979695 31.86,10.609796 48.22,13.200368 15.58,2.689575 31.86,4.339621 39.61,5.280147 l 7.75,0.874524 V 1.4911471 h -7.92 c -8.01,0 -23.94,0 -39.44,0 -16.19,0 -31.86,0 -48.22,0 -15.68,0 -31.86,0 -47.36,0 -16.02,0 -31.87,0 -48.23,0 -15.5,0 -31,0 -47.36003,0 -15.842,0 -31.859,0 -47.359,0 -16.189,0 -31.861,0 -48.222,0 -15.672,0 -31.861,0 -47.361,0 -15.931,0 -31.861,0 -47.361,0 -16.275,0 -31.861,0 -48.223,0 -15.758,0 -31.861,0 -47.361,0 -16.102,0 -31.861,0 -48.222,0 -15.586,0 -31.861,0 -47.361,0 -15.931,0 -31.861,0 -47.361,0 -16.189,0 -31.861,0 -48.222,0 -15.673,0 -31.861,0 -47.361,0 -16.017,0 -31.862,0 -48.223,0 -15.5,0 -31,0 -47.361,0 -15.844,0 -31.861,0 -47.361,0 -16.189,0 -31.861,0 -48.222,0 -15.672,0 -31.861,0 -47.361,0 -15.931,0 -31.861,0 -47.361,0 -16.275,0 -31.861,0 -48.223,0 -15.758,0 -31.861,0 -47.360695,0 -16.1027,0 -31.8611,0 -48.2222,0 -15.5861,0 -31.8611002,0 -39.6111002,0 h -7.7499998 z"
     fill="#f03e3e"
     id="path74"
     style="stroke-width:0.440594" />
</svg>